<svg id="visual" viewBox="0 0 960 540" width="960" height="540" xmlns="http://www.w3.org/2000/svg" xmlns:xlink="http://www.w3.org/1999/xlink" version="1.1"><path d="M0 392L11.5 392.3C23 392.7 46 393.3 68.8 394.5C91.7 395.7 114.3 397.3 137.2 401.7C160 406 183 413 205.8 412C228.7 411 251.3 402 274.2 399.2C297 396.3 320 399.7 342.8 404.2C365.7 408.7 388.3 414.3 411.2 417.8C434 421.3 457 422.7 480 417.7C503 412.7 526 401.3 548.8 395.7C571.7 390 594.3 390 617.2 394.8C640 399.7 663 409.3 685.8 415.2C708.7 421 731.3 423 754.2 417.7C777 412.3 800 399.7 822.8 399.3C845.7 399 868.3 411 891.2 415.5C914 420 937 417 948.5 415.5L960 414L960 541L948.5 541C937 541 914 541 891.2 541C868.3 541 845.7 541 822.8 541C800 541 777 541 754.2 541C731.3 541 708.7 541 685.8 541C663 541 640 541 617.2 541C594.3 541 571.7 541 548.8 541C526 541 503 541 480 541C457 541 434 541 411.2 541C388.3 541 365.7 541 342.8 541C320 541 297 541 274.2 541C251.3 541 228.7 541 205.8 541C183 541 160 541 137.2 541C114.3 541 91.7 541 68.8 541C46 541 23 541 11.5 541L0 541Z" fill="#5041b3"></path><path d="M0 468L11.5 462.8C23 457.7 46 447.3 68.8 441.8C91.7 436.3 114.3 435.7 137.2 434.8C160 434 183 433 205.8 432.2C228.7 431.3 251.3 430.7 274.2 435.3C297 440 320 450 342.8 455C365.7 460 388.3 460 411.2 455.5C434 451 457 442 480 442C503 442 526 451 548.8 451.2C571.7 451.3 594.3 442.7 617.2 441.3C640 440 663 446 685.8 448.3C708.7 450.7 731.3 449.3 754.2 447.3C777 445.3 800 442.7 822.8 441.7C845.7 440.7 868.3 441.3 891.2 442.5C914 443.7 937 445.3 948.5 446.2L960 447L960 541L948.5 541C937 541 914 541 891.2 541C868.3 541 845.7 541 822.8 541C800 541 777 541 754.2 541C731.3 541 708.7 541 685.8 541C663 541 640 541 617.2 541C594.3 541 571.7 541 548.8 541C526 541 503 541 480 541C457 541 434 541 411.2 541C388.3 541 365.7 541 342.8 541C320 541 297 541 274.2 541C251.3 541 228.7 541 205.8 541C183 541 160 541 137.2 541C114.3 541 91.7 541 68.8 541C46 541 23 541 11.5 541L0 541Z" fill="#4427a3"></path><path d="M0 476L11.5 477.2C23 478.3 46 480.7 68.8 484.8C91.7 489 114.3 495 137.2 494.3C160 493.7 183 486.3 205.8 485.7C228.7 485 251.3 491 274.2 490.5C297 490 320 483 342.8 483C365.7 483 388.3 490 411.2 491.8C434 493.7 457 490.3 480 490.7C503 491 526 495 548.8 493.7C571.7 492.3 594.3 485.7 617.2 482.7C640 479.7 663 480.3 685.8 480.2C708.7 480 731.3 479 754.2 478.2C777 477.3 800 476.7 822.8 478.8C845.7 481 868.3 486 891.2 485.3C914 484.7 937 478.3 948.5 475.2L960 472L960 541L948.5 541C937 541 914 541 891.2 541C868.3 541 845.7 541 822.8 541C800 541 777 541 754.2 541C731.3 541 708.7 541 685.8 541C663 541 640 541 617.2 541C594.3 541 571.7 541 548.8 541C526 541 503 541 480 541C457 541 434 541 411.2 541C388.3 541 365.7 541 342.8 541C320 541 297 541 274.2 541C251.3 541 228.7 541 205.8 541C183 541 160 541 137.2 541C114.3 541 91.7 541 68.8 541C46 541 23 541 11.5 541L0 541Z" fill="#3a0092"></path></svg>